<?xml version="1.0" standalone="no"?>
<!DOCTYPE svg PUBLIC "-//W3C//DTD SVG 20010904//EN"
 "http://www.w3.org/TR/2001/REC-SVG-20010904/DTD/svg10.dtd">
<svg version="1.0" xmlns="http://www.w3.org/2000/svg"
 width="708.000000pt" height="708.000000pt" viewBox="0 0 708.000000 708.000000"
 preserveAspectRatio="xMidYMid meet">
<metadata>
Created by potrace 1.14, written by Peter Selinger 2001-2017
</metadata>
<g transform="translate(0.000000,708.000000) scale(0.100000,-0.100000)"
fill="#000000" stroke="none">
<path d="M1054 7056 c-305 -79 -533 -300 -625 -606 -22 -72 -23 -92 -25 -475
-2 -223 2 -424 7 -455 5 -30 12 -69 14 -85 7 -52 55 -205 80 -262 14 -29 25
-56 25 -60 0 -3 21 -42 47 -87 189 -330 495 -567 853 -661 3 -1 30 -6 60 -13
30 -6 69 -15 85 -19 17 -3 426 -8 910 -10 846 -3 883 -4 946 -23 165 -50 300
-195 339 -365 7 -30 13 -157 14 -310 3 -291 3 -296 76 -357 54 -47 112 -59
176 -38 27 9 130 70 229 135 99 66 185 122 190 125 6 3 118 77 250 164 259
172 522 345 785 517 91 60 172 113 180 119 8 6 112 75 230 153 239 157 287
194 375 282 214 216 343 472 390 775 17 107 12 358 -8 460 -100 490 -439 882
-907 1045 -226 78 -53 73 -2460 74 l-2145 0 -91 -23z"/>
<path d="M3070 3860 c-44 -8 -84 -29 -185 -97 -44 -29 -87 -58 -95 -63 -8 -6
-71 -47 -140 -93 -69 -45 -229 -150 -355 -233 -127 -83 -358 -236 -515 -339
-157 -104 -370 -244 -475 -313 -277 -182 -329 -216 -335 -222 -3 -3 -23 -18
-45 -35 -42 -31 -175 -162 -210 -205 -250 -315 -356 -696 -300 -1075 18 -118
21 -131 50 -224 103 -324 331 -606 630 -779 124 -71 310 -139 430 -158 22 -3
60 -10 85 -14 25 -5 1015 -7 2200 -6 2019 2 2159 3 2215 19 158 46 275 110
378 207 133 125 207 252 264 461 4 13 8 200 9 414 2 301 0 412 -12 485 -75
496 -427 923 -898 1089 -94 33 -97 34 -201 55 -125 25 -199 27 -1045 29 -826
2 -836 2 -892 24 -156 58 -281 199 -319 358 -7 31 -12 151 -13 310 -2 254 -2
261 -26 302 -39 71 -127 116 -200 103z"/>
</g>
</svg>
